<svg width="16" height="16" viewBox="0 0 16 16" fill="none" xmlns="http://www.w3.org/2000/svg">
    <g clip-path="url(#clip0_3_766)">
        <path
            d="M9.99996 2V3.33333H13.3333V12.6667H2.66663V6.66667H1.33329V13.3333C1.33329 13.5101 1.40353 13.6797 1.52855 13.8047C1.65358 13.9298 1.82315 14 1.99996 14H14C14.1768 14 14.3463 13.9298 14.4714 13.8047C14.5964 13.6797 14.6666 13.5101 14.6666 13.3333V2.66667C14.6666 2.48986 14.5964 2.32029 14.4714 2.19526C14.3463 2.07024 14.1768 2 14 2H9.99996Z"
            fill="white" />
        <path
            d="M8.03328 6L10.7 6L6.69995 10.6667L6.69995 4.66667C6.69995 4.31304 6.55948 3.97391 6.30943 3.72386C6.05938 3.47381 5.72024 3.33333 5.36662 3.33333L1.36662 3.33333L1.36662 2L5.36662 2C6.07386 2 6.75214 2.28095 7.25224 2.78105C7.75233 3.28115 8.03328 3.95942 8.03328 4.66667L8.03328 6Z"
            fill="white" />
    </g>
    <defs>
        <clipPath id="clip0_3_766">
            <rect width="16" height="16" fill="white" />
        </clipPath>
    </defs>
</svg>