<svg width="30" height="30" viewBox="0 0 30 30" fill="none" xmlns="http://www.w3.org/2000/svg">
    <path fill-rule="evenodd" clip-rule="evenodd"
        d="M15 30C23.2843 30 30 23.2843 30 15C30 6.71573 23.2843 0 15 0C6.71573 0 0 6.71573 0 15C0 23.2843 6.71573 30 15 30Z"
        fill="#18A0FB" fill-opacity="0.1" />
    <path fill-rule="evenodd" clip-rule="evenodd"
        d="M16.3313 11.1625C16.3313 11.9 16.9277 12.4982 17.6652 12.4982H21.3259C21.3295 12.5089 21.3313 12.5196 21.3331 12.5321V21.1643C21.3349 21.8982 20.742 22.4982 20.0045 22.5H9.99557C9.25985 22.4982 8.667 21.8982 8.667 21.1643L8.667 8.83571C8.66521 8.09821 9.26164 7.50179 9.99557 7.5H16.3313V11.1625ZM16.6653 11.9033V8.36754C16.6653 8.13183 16.9475 8.01576 17.1135 8.18183C17.9457 9.01576 19.6939 10.8747 20.4814 11.7265C20.635 11.8943 20.5171 12.1658 20.2885 12.1658H16.9278C16.7832 12.1658 16.6653 12.0497 16.6653 11.9033Z"
        fill="url(#paint0_linear_67_9027)" />
    <g filter="url(#filter0_d_67_9027)">
        <path
            d="M17.6652 15.8321H12.3331C11.9652 15.8321 11.667 15.5321 11.667 15.1661C11.667 14.8 11.967 14.5 12.3331 14.5H17.6652C18.0331 14.5 18.3313 14.8 18.3313 15.1661C18.3313 15.5321 18.0331 15.8321 17.6652 15.8321Z"
            fill="white" />
    </g>
    <g filter="url(#filter1_d_67_9027)">
        <path
            d="M17.6652 19.1647H12.3331C11.9652 19.1647 11.667 18.8647 11.667 18.4986C11.667 18.1325 11.967 17.8325 12.3331 17.8325H17.6652C18.0331 17.8325 18.3313 18.1325 18.3313 18.4986C18.3313 18.8647 18.0331 19.1647 17.6652 19.1647Z"
            fill="white" />
    </g>
    <g filter="url(#filter2_d_67_9027)">
        <path fill-rule="evenodd" clip-rule="evenodd"
            d="M16.3159 7.5L21.333 12.5321C21.333 12.5321 19.1904 12.5321 18.1001 12.5321C17.162 12.5321 16.3159 12.43 16.3159 11.3896C16.3159 10.3491 16.3159 7.5 16.3159 7.5Z"
            fill="#98D6FF" />
    </g>
    <defs>
        <filter id="filter0_d_67_9027" x="8.46699" y="12.1" width="13.0641" height="7.73214"
            filterUnits="userSpaceOnUse" color-interpolation-filters="sRGB">
            <feFlood flood-opacity="0" result="BackgroundImageFix" />
            <feColorMatrix in="SourceAlpha" type="matrix" values="0 0 0 0 0 0 0 0 0 0 0 0 0 0 0 0 0 0 127 0"
                result="hardAlpha" />
            <feOffset dy="0.8" />
            <feGaussianBlur stdDeviation="1.6" />
            <feColorMatrix type="matrix" values="0 0 0 0 0 0 0 0 0 0.763003 0 0 0 0 1 0 0 0 0.10189 0" />
            <feBlend mode="normal" in2="BackgroundImageFix" result="effect1_dropShadow_67_9027" />
            <feBlend mode="normal" in="SourceGraphic" in2="effect1_dropShadow_67_9027" result="shape" />
        </filter>
        <filter id="filter1_d_67_9027" x="8.46699" y="15.4325" width="13.0641" height="7.73214"
            filterUnits="userSpaceOnUse" color-interpolation-filters="sRGB">
            <feFlood flood-opacity="0" result="BackgroundImageFix" />
            <feColorMatrix in="SourceAlpha" type="matrix" values="0 0 0 0 0 0 0 0 0 0 0 0 0 0 0 0 0 0 127 0"
                result="hardAlpha" />
            <feOffset dy="0.8" />
            <feGaussianBlur stdDeviation="1.6" />
            <feColorMatrix type="matrix" values="0 0 0 0 0 0 0 0 0 0.763003 0 0 0 0 1 0 0 0 0.10189 0" />
            <feBlend mode="normal" in2="BackgroundImageFix" result="effect1_dropShadow_67_9027" />
            <feBlend mode="normal" in="SourceGraphic" in2="effect1_dropShadow_67_9027" result="shape" />
        </filter>
        <filter id="filter2_d_67_9027" x="13.1159" y="5.9" width="11.4171" height="11.4321" filterUnits="userSpaceOnUse"
            color-interpolation-filters="sRGB">
            <feFlood flood-opacity="0" result="BackgroundImageFix" />
            <feColorMatrix in="SourceAlpha" type="matrix" values="0 0 0 0 0 0 0 0 0 0 0 0 0 0 0 0 0 0 127 0"
                result="hardAlpha" />
            <feOffset dy="1.6" />
            <feGaussianBlur stdDeviation="1.6" />
            <feColorMatrix type="matrix" values="0 0 0 0 0 0 0 0 0 0.509288 0 0 0 0 1 0 0 0 0.205829 0" />
            <feBlend mode="normal" in2="BackgroundImageFix" result="effect1_dropShadow_67_9027" />
            <feBlend mode="normal" in="SourceGraphic" in2="effect1_dropShadow_67_9027" result="shape" />
        </filter>
        <linearGradient id="paint0_linear_67_9027" x1="16.8696" y1="-7.53844" x2="-4.50611" y2="12.1496"
            gradientUnits="userSpaceOnUse">
            <stop stop-color="#89E9FE" />
            <stop offset="1" stop-color="#0069DF" />
        </linearGradient>
    </defs>
</svg>