<svg width="16" height="16" viewBox="0 0 16 16" fill="none" xmlns="http://www.w3.org/2000/svg">
    <rect x="1" y="3.54639" width="14.0048" height="1.27316" fill="white" />
    <path d="M2.27319 4.81946H3.54635L4.81951 15.0047H3.54635L2.27319 4.81946Z" fill="white" />
    <path d="M12.4585 4.81946H13.7316L12.4585 15.0047H11.1853L12.4585 4.81946Z" fill="white" />
    <rect x="3.54639" y="13.7316" width="8.91212" height="1.27316" fill="white" />
    <path fill-rule="evenodd" clip-rule="evenodd"
        d="M4.54639 1C3.9941 1 3.54639 1.44771 3.54639 2V3.81948C3.54639 4.37176 3.9941 4.81948 4.54639 4.81948H11.4585C12.0108 4.81948 12.4585 4.37176 12.4585 3.81948V2C12.4585 1.44772 12.0108 1 11.4585 1H4.54639ZM11.1854 2.2732H4.81958V3.54636H11.1854V2.2732Z"
        fill="white" />
</svg>