<svg width="16" height="17" viewBox="0 0 16 17" fill="none" xmlns="http://www.w3.org/2000/svg">
    <path
        d="M13.3531 5.47562L9.99063 2.11312C9.89688 2.01937 9.77031 1.96625 9.6375 1.96625H3C2.72344 1.96625 2.5 2.18969 2.5 2.46625V15.4662C2.5 15.7428 2.72344 15.9662 3 15.9662H13C13.2766 15.9662 13.5 15.7428 13.5 15.4662V5.83031C13.5 5.6975 13.4469 5.56937 13.3531 5.47562ZM12.3469 6.06H9.40625V3.11937L12.3469 6.06ZM12.375 14.8412H3.625V3.09125H8.34375V6.46625C8.34375 6.6403 8.41289 6.80722 8.53596 6.93029C8.65903 7.05336 8.82595 7.1225 9 7.1225H12.375V14.8412ZM7.875 10.6225H5C4.93125 10.6225 4.875 10.6787 4.875 10.7475V11.4975C4.875 11.5662 4.93125 11.6225 5 11.6225H7.875C7.94375 11.6225 8 11.5662 8 11.4975V10.7475C8 10.6787 7.94375 10.6225 7.875 10.6225ZM4.875 8.6225V9.3725C4.875 9.44125 4.93125 9.4975 5 9.4975H11C11.0688 9.4975 11.125 9.44125 11.125 9.3725V8.6225C11.125 8.55375 11.0688 8.4975 11 8.4975H5C4.93125 8.4975 4.875 8.55375 4.875 8.6225Z"
        fill="#18A0FB" />
</svg>